<?xml version="1.0" encoding="UTF-8" standalone="no"?>
<!-- Created with Inkscape (http://www.inkscape.org/) -->

<svg
   xmlns:svg="http://www.w3.org/2000/svg"
   xmlns="http://www.w3.org/2000/svg"
   version="1.1"
   width="140"
   height="325"
   id="svg2">
  <defs
     id="defs6" />
  <g
     id="g2820">
    <path
       d="m 49.888252,320.18742 c -3.0112,-1.86104 -2.168212,-2.54533 7.046864,-5.72017 9.085433,-3.13019 11.23775,-2.13955 5.224568,2.40465 -5.401962,4.08231 -9.318568,5.1405 -12.271432,3.31552 z m -15.595498,-1.69803 c -0.12141,-0.42805 -0.385434,-9.35359 -0.58654,-19.83453 -0.355203,-18.51265 -0.570922,-19.47643 -7.561803,-33.78586 -3.957906,-8.10126 -7.196171,-16.32365 -7.196171,-18.27192 0,-1.94829 -0.541383,-4.08371 -1.203051,-4.74539 -0.661686,-0.66167 -1.390684,-2.15336 -1.620015,-3.31485 -0.22933,-1.16149 -1.648707,-7.55971 -3.154195,-14.21825 -2.023002,-8.9476 -2.72713,-21.35735 -2.698542,-47.56101 0.06503,-59.67827 1.292466,-63.89476 18.620378,-63.96756 l 5.620847,-0.0236 2.94e-4,-13.403567 c 1.56e-4,-7.371948 1.087712,-19.240582 2.416774,-26.374733 1.329079,-7.134152 2.932318,-18.808218 3.562786,-25.94237 1.825409,-20.656031 10.4546,-38.6663565 13.610974,-36.715616 0.887263,0.548366 -2.04609,1.391247 -1.448603,0.424511 1.869632,-3.0251313 9.324602,-1.2987113 11.590652,2.329819 1.354821,2.169417 2.551601,3.279426 3.409673,3.321233 0.858072,0.04181 1.377438,-0.984591 1.377438,-3.087996 0,-5.7208219 6.549446,-12.74933108 12.179408,-12.58925858 6.544931,0.1860876 10.496265,4.58982048 11.595737,12.92338858 0.477963,3.622741 1.397136,8.455252 1.664468,7.912682 0.23826,-0.483565 1.911987,-3.083029 4.876233,-4.687671 2.424334,-1.31237 3.887694,-1.214317 5.765834,-1.063955 2.27581,0.182201 3.48648,2.191713 5.1096,4.243843 2.0712,2.618638 4.83509,8.881394 4.37149,9.345 -0.46361,0.463608 -1.51382,-3.435222 -0.64388,-2.386973 0.86996,1.048249 2.0849,6.567754 2.69982,12.265568 0.61494,5.697815 1.50325,11.714961 1.97406,13.371438 2.2198,7.810286 7.11907,48.925957 8.39965,70.491607 0.53659,9.03659 1.5718,21.14365 2.30045,26.90456 1.57154,12.42498 0.13067,40.94415 -1.99451,40.94415 -0.82187,0 -0.99056,-10.84035 -0.88701,-17.26109 0.10359,-6.42074 0.58141,-14.78715 -0.14524,-18.59203 -0.72663,-3.80488 -1.16472,-8.85614 -1.45638,-10.50074 -0.29167,-1.64461 -0.98104,-9.81053 -1.53194,-18.62935 C 121.12438,90.997552 118.3487,77.643561 113.34739,42.722022 111.095,26.994861 106.42472,18.43431 101.19238,20.442146 c -3.237898,1.242497 -4.374053,7.118096 -4.642643,24.009367 -0.276407,17.383645 1.96344,79.035647 2.928132,80.596547 0.395103,0.6393 -0.371183,2.06661 -1.702839,3.1718 -1.388125,1.15204 -2.83903,1.33343 -3.400388,0.42513 -0.538529,-0.87137 -1.307374,-23.81511 -1.70853,-50.986088 C 92.264957,50.487912 91.508581,27.56435 90.985289,26.717642 90.461997,25.870933 89.838135,21.861393 89.598946,17.80755 88.839267,4.9327133 77.970832,2.1794851 73.178982,13.647993 c -2.456828,5.88001 -2.921681,18.624429 -3.127248,85.7351 -0.06728,21.965767 -0.530816,27.087867 -2.386819,26.374747 -1.266818,-0.48674 -3.10231,-0.88499 -4.07885,-0.88499 -1.025969,0 -1.321539,-1.80882 -0.700133,-4.2847 1.734749,-6.91182 2.518658,-98.161122 0.880294,-102.470335 -2.052162,-5.397615 -7.528873,-4.963595 -11.724896,0.929182 -4.979154,6.992587 -6.642457,15.138152 -8.18864,40.101574 -0.559577,9.034607 -1.333265,16.937618 -1.719304,17.562246 -0.521131,0.843205 -2.688892,27.188473 -2.82445,34.326103 -0.06814,3.58954 0.796189,5.08329 3.424081,5.91735 4.640658,1.47289 7.784251,7.79839 8.914871,17.93839 l 1.025433,9.19665 9.978819,4.04855 c 14.407406,5.84529 22.01677,12.10753 22.01677,18.11903 0,4.93914 -3.278621,5.72669 -5.474262,3.53105 -0.654422,-0.65442 -1.234141,1.84277 -0.08112,-0.004 3.177318,-5.08768 2.555497,-8.59227 -1.524494,-8.59227 -2.107887,0 -3.981393,-1.37854 -4.483637,-3.29909 -0.474486,-1.81449 -2.15275,-3.74745 -3.729441,-4.29546 -1.576691,-0.548 -4.641868,-1.77118 -6.811515,-2.71818 -3.361214,-1.46707 -4.233847,-1.08746 -5.898465,2.56597 -2.257176,4.95397 -6.840086,5.48733 -14.19454,1.65195 -6.257905,-3.26352 -7.271992,-2.32978 -4.56565,4.20392 2.135628,5.15584 14.735578,19.18581 17.230282,19.18581 2.112297,0 7.712667,5.52532 12.270862,12.10643 2.305896,3.32927 5.94338,7.9668 8.083279,10.30563 2.378103,2.59916 3.195115,4.68232 2.101505,5.3582 -0.98408,0.6082 -2.165911,3.75338 -2.626301,6.98929 -0.460408,3.23592 -1.188593,6.91786 -1.618199,8.18209 -0.429623,1.26422 -1.227887,7.49039 -1.773939,13.83593 -1.180897,13.72306 -1.754846,15.86106 -4.257921,15.86106 -2.112747,0 -2.035612,-24.36793 0.09581,-30.2661 5.780098,-15.99509 5.829596,-15.36023 -2.132187,-27.35355 -4.079437,-6.1451 -8.701261,-11.55592 -10.270705,-12.02402 -4.586178,-1.36791 -20.94241,4.98046 -26.11544,10.13623 -3.596217,3.5842 -4.756101,4.05524 -4.756101,1.93146 0,-3.83435 10.733587,-12.11194 16.730563,-12.90238 7.659952,-1.00964 8.015639,-2.84045 1.826706,-9.40262 -6.338257,-6.72051 -9.340688,-15.24822 -9.780723,-27.77986 -0.242388,-6.90261 0.215408,-8.21508 2.865387,-8.21508 1.73461,0 4.781317,1.13993 6.770457,2.53318 4.448061,3.11554 5.818596,1.92551 5.739195,-4.98329 -2.084289,-15.48459 -2.603357,-9.99636 -8.970992,-13.88199 -5.567976,-3.89997 -14.700422,-4.45476 -19.977723,0.11263 -2.749926,1.95521 -3.082445,8.44894 -3.607287,13.86667 l -0.515607,34.34839 c -0.11847,42.45789 0.477167,48.88613 6.329644,68.31491 1.57593,5.23171 3.467769,12.23615 4.204099,15.56542 0.736331,3.32927 3.300147,9.68107 5.69736,14.11511 2.397213,4.43403 5.004318,12.60588 5.793571,18.15965 1.802009,12.68036 1.225293,31.91426 -1.02436,34.16391 -0.936814,0.93681 -1.802701,1.35307 -1.924198,0.92502 l -6.5e-5,-2e-5 -4e-6,5e-4 z M 54.306358,152.70078 c 1.852009,-2.99663 -1.094111,-6.89462 -7.887051,-10.4353 -8.19599,-4.27199 -9.493195,-4.37208 -10.84967,-0.83718 -1.413617,3.68382 1.796094,9.24639 6.40742,11.10433 5.039495,2.03046 11.127011,2.11348 12.329301,0.16814 l 0,1e-5 z m 59.574802,158.09237 c -0.14632,-0.95122 -0.11432,-7.95566 0.0711,-15.56542 0.31107,-12.76849 2.51482,-22.48887 9.42414,-41.56846 4.76437,-13.15643 6.22234,-46.1232 2.44418,-55.26598 -2.15671,-5.21904 -11.80367,-13.85359 -13.33503,-15.58249 -1.33281,-1.50473 -27.507238,-17.02718 -28.460754,-18.24976 -0.890039,-1.14118 7.49726,-5.01251 10.588726,-6.27388 4.865422,-1.98517 5.620848,-1.94407 5.620848,0.3058 0,1.60273 -1.618494,2.5992 -4.221655,2.5992 -9.007121,0 -6.30659,4.76377 6.406055,11.3004 3.57947,1.84051 8.4097,5.10961 10.73384,7.26468 2.32413,2.15507 4.9093,3.9183 5.7448,3.9183 1.76007,0 8.84851,7.9701 12.11137,13.61776 2.30752,3.9941 3.15075,27.31629 1.26369,34.95134 -0.56828,2.29922 -1.32387,7.25016 -1.67911,11.00212 -0.5638,5.95471 -5.7323,24.36181 -9.73942,34.68606 -2.12756,5.48155 -3.13429,20.47226 -1.57104,23.39322 0.92421,1.7269 0.27297,4.15811 -1.85593,6.92851 -1.80386,2.34746 -3.39948,3.48982 -3.54577,2.5386 l -4e-5,0 z m -25.743617,-6.13969 c 0.0086,-3.95106 2.403682,-14.72427 4.593996,-20.66742 0.76658,-2.08003 1.204677,-1.9265 2.210238,0.77455 0.68979,1.85284 0.128501,7.30074 -1.247275,12.10644 -2.931505,10.24002 -5.570968,13.93844 -5.556959,7.78643 z M 53.869558,275.20887 c 0.340848,-1.02256 1.378543,-1.94793 2.305983,-2.05637 0.927439,-0.10844 3.487294,-1.13157 5.688556,-2.2736 4.090887,-2.12237 12.06948,-1.28704 9.515557,0.99625 -1.860258,1.66312 -12.497788,5.19292 -15.649561,5.19292 -1.364154,0 -2.201401,-0.83664 -1.860535,-1.8592 z m 29.415759,-60.74838 c -1.141464,-1.14147 -2.07539,-3.11452 -2.07539,-4.38457 0,-1.77327 0.802778,-1.87956 3.458983,-0.45801 1.90244,1.01815 3.458983,2.99121 3.458983,4.38457 0,3.07182 -2.036183,3.2644 -4.842576,0.45801 z M 26.907359,157.4602 c -1.523855,-2.17561 -2.770645,-6.54508 -2.770645,-9.70993 0,-3.16486 -1.164553,-8.00628 -2.58789,-10.75872 -1.632311,-3.15653 -1.951627,-5.39768 -0.864745,-6.06941 0.947726,-0.58573 1.73506,-0.43533 1.749622,0.33423 0.01384,0.76955 0.679517,0.36921 1.47766,-0.88964 0.913604,-1.44096 1.883347,1.92965 2.617897,9.09913 0.641693,6.26337 1.944207,13.43288 2.894459,15.93224 2.268902,5.96768 0.966682,7.03483 -2.516358,2.0621 z M 104.02481,93.612285 c 0.34084,-1.022562 1.18397,-1.800833 1.87361,-1.729491 0.68963,0.07134 2.46722,0.129711 3.95019,0.129711 1.48295,0 2.2153,0.778272 1.62742,1.729492 -1.44288,2.334626 -8.23328,2.216417 -7.45122,-0.129712 z M 50.126887,89.475869 c -1.885319,-2.271668 -1.52996,-2.651837 2.478793,-2.651837 2.843664,0 4.411033,0.80575 3.995021,2.05377 -1.074533,3.223627 -4.06548,3.499937 -6.473814,0.598067 z m 27.047566,-2.075341 c -1.764652,-1.764638 -1.370414,-7.494462 0.515631,-7.494462 1.54108,0 5.249335,5.417585 5.249335,7.669013 0,1.360805 -4.361674,1.228743 -5.764966,-0.174551 z M 101.96382,54.828442 c -1.30364,-1.570781 -1.44298,-2.594237 -0.35321,-2.594237 3.17701,0 7.27118,2.051832 7.27118,3.644019 0,2.474576 -4.56835,1.781344 -6.91797,-1.049782 z m -51.115199,-6.20726 c -0.901203,-1.458184 -0.230507,-1.802303 4.418937,-2.267247 0.95122,-0.09512 1.924059,0.53113 2.161864,1.391671 0.578186,2.092265 -5.342018,2.879949 -6.580801,0.875576 z m 27.334696,-2.72086 c -3.272111,-1.320321 -2.587924,-3.818563 0.864746,-3.157612 1.664636,0.318663 3.610313,0.638935 4.323728,0.711714 0.713416,0.07278 1.297119,0.910596 1.297119,1.861816 0,1.811251 -2.815871,2.064845 -6.485593,0.584082 z"
       id="path2818"
       style="fill:#000000" />
  </g>
</svg>
