<svg width="2689" height="2017" viewBox="0 0 2689 2017" fill="none" xmlns="http://www.w3.org/2000/svg">
<path d="M11 1888.5C8.30497 1892.48 5.86233 1893.37 0.5 1893.5C28.644 1734.04 109.279 1655.34 332 1528C319.614 1298.18 354.5 1150.5 470.04 948.5C585.58 746.5 699.073 588.862 937 398.5C1050.83 289.295 1092.45 244.489 1096.5 216.5C1110.84 145.931 1086.65 114.997 998 72C981.768 56.5338 982.59 46.6701 993 27.9999C1135.24 -38.754 1253.34 21.644 1475 157.5C2067.92 173.144 2268.5 318.702 2548.5 659C2612.43 752.067 2627.08 795.043 2635.5 864C2641.53 883.702 2639.5 895 2637 926C2634.5 957 2642.28 954.407 2681 1022.5C2692.47 1043.59 2689.81 1053.87 2681 1071.5C2684.02 1089.09 2681.18 1094.48 2674.5 1102.5C2653.32 1113.18 2631.91 1105.32 2587 1081.5C2525.27 1019.02 2483.67 995.706 2398.5 972.5L2268 906C2235.4 879.713 2205.71 868.944 2117.5 862C2019.13 968.522 1959.47 993.799 1848 1000C1743.02 992.58 1689.28 977.922 1606 926V906C1618.97 905.654 1780.94 862.69 1795.5 820.5C1759.51 820.237 1740 820.5 1696 820.264C1652 820.028 1432.84 827.692 1308.5 845.5C1161.25 900.103 1075.73 920.26 921 948.5C670.331 1158.85 572.368 1295.25 464.5 1567.5C523.583 1642.9 548.164 1689.45 578 1779.5C591.407 1828.1 592.406 1856.35 592.5 1907C590.958 1948.98 586.415 1971.37 571 2009L563 2016C558.808 2017.92 555.972 2015.71 550.5 2009C545.511 1980.19 541.84 1964.71 531.5 1940C496.57 1893.26 472.464 1874.22 417 1860V1853.5C417 1853.5 389.574 1854.2 372 1853.5C357.55 1851.7 348.531 1848.99 330.5 1840.5C326.925 1831.36 325.413 1825.2 324 1811.5C316.846 1820.71 309.904 1824.33 296 1830C285.668 1831.86 278.906 1831.04 265.5 1827C203.421 1801.88 166.159 1799 94.5 1817.5C57.4051 1829.56 39.0663 1844.96 11 1888.5Z" fill="black"/>
</svg>
