<svg width="297" height="177" viewBox="0 0 297 177" fill="none" xmlns="http://www.w3.org/2000/svg">
<path d="M137.5 132.5C143.571 132.943 146.329 133.286 149.5 134.5C149.982 135.237 149.795 135.68 149 136.5H141.5C138.701 136.997 135.665 138.213 128.5 141.5C121.854 142.987 118.813 145.342 114.5 152L112.5 152.5L111.5 155L108.5 155.5L107.5 159L105 159.5L104 162H100L101 165.5H98.5V167L96 167.5V169L91 169.5L90.5 171.5C90.9525 173.2 91.7499 173.954 94 175C100.714 175.89 104.763 175.882 112.5 175C123.803 173.149 126.974 171.881 131 169.5C149.041 164.484 158.95 159.561 176.5 149.5H181C195.446 147.21 203.292 144.613 217 138.5C225.268 138.533 231.128 140.11 244 146C249.729 149.137 253.441 150.625 261.5 152.5C263.473 153.387 264.845 153.8 269 154C270.802 153.918 271.097 154.281 271.5 155L264 162H265L272.5 155L275 155.5L269 162L269.5 162.5L276 155.5H277.5L273 162.5H273.5L278.5 155.5H279.5L278.5 160H279L280.5 155.5H281.5L285 155C288.672 154.547 291.157 153.94 294 149.5C295.928 147.038 295.992 145.154 294.5 141C293.457 139.549 292.402 138.98 289.5 138.5C288.169 137.49 287.643 136.78 287.5 135C287.797 127.216 286.529 123.872 278.5 122C275.465 117.415 270.752 115.234 249.5 113C238.277 108.142 233.365 104.643 224 96C217.224 85.999 211.753 81.0016 199.5 73C198.544 64.4694 196.943 58.3307 193 46C189.575 36.428 187.15 30.9847 181 21C174.172 5.72765 170.341 1.64414 163.5 0.999985C165.304 18.6631 166.063 28.5537 163.5 46C171.187 63.3964 171.572 68.5214 170 75C135.52 73.2107 123.754 72.9233 109 73C94.564 73.8674 88.9743 73.3144 81 71.5C66.4011 62.4283 61.6303 58.6609 55 51.5C46.4067 41.9898 44.5147 37.4921 43 30C41.5923 23.1707 39.8281 19.0008 36.5 11.5C37.0825 16.2411 36.6026 18.3509 36.0075 20.9668L36 21C32.7472 18.3072 31.6965 16.9291 29.9895 13.5C30.8373 18.5229 30.6814 19.7797 29.9895 21C28.0624 18.997 26.7467 16.2404 24.5 11C24.5902 16.8993 25.7827 21.0815 30.5 28.5C33.3346 35.7209 35.7031 39.1957 39.84 45.2652L40 45.5C46.8003 54.0622 49.6354 58.1179 48.5 60C45.7203 59.2025 44.4232 58.5608 42.5 55.5L37.5 43C32.6474 36.0666 30.579 31.588 27 23.5C27.511 27.9847 27.4565 30.1256 26.5 33C24.1065 31.4294 22.8031 29.8117 20.5 26.5C21.9322 32.2454 22.0281 34.0857 21.5 36C19.0958 35.333 17.6819 34.1212 15 30C16.8524 36.5788 16.884 38.1418 16.5 40C13.1217 38.429 11.7045 37.1212 9.5 34.5C11.31 39.2781 11.7624 41.1635 11.5 43C9.13954 43.423 6.89557 42.2507 0.500018 36.5C0.450431 42.014 2.37255 44.9231 7.00002 50L39.5 78C43.8893 84.1909 49.0521 89.7295 64 104C71.6213 105.199 74.7586 105.742 78.5 106.5L103 123C111.684 127.923 117.504 130.564 137.5 132.5Z" fill="#090909"/>
<path d="M29.9895 21C28.0624 18.997 26.7467 16.2404 24.5 11C24.5902 16.8993 25.7827 21.0815 30.5 28.5C33.371 35.8135 35.7637 39.2842 40 45.5C46.8003 54.0622 49.6354 58.1179 48.5 60C45.7203 59.2025 44.4232 58.5608 42.5 55.5L37.5 43C32.6474 36.0666 30.579 31.588 27 23.5C27.511 27.9847 27.4565 30.1256 26.5 33C24.1065 31.4294 22.8031 29.8117 20.5 26.5C21.9322 32.2454 22.0281 34.0857 21.5 36C19.0958 35.333 17.6819 34.1212 15 30C16.8524 36.5788 16.884 38.1418 16.5 40C13.1217 38.429 11.7045 37.1212 9.5 34.5C11.31 39.2781 11.7624 41.1635 11.5 43C9.13954 43.423 6.89557 42.2507 0.500018 36.5C0.450431 42.014 2.37255 44.9231 7.00002 50L39.5 78C43.8893 84.1909 49.0521 89.7295 64 104C71.6213 105.199 74.7586 105.742 78.5 106.5L103 123C111.684 127.923 117.504 130.564 137.5 132.5C143.571 132.943 146.329 133.286 149.5 134.5C149.982 135.237 149.795 135.68 149 136.5H141.5C138.701 136.997 135.665 138.213 128.5 141.5C121.854 142.987 118.813 145.342 114.5 152L112.5 152.5L111.5 155L108.5 155.5L107.5 159L105 159.5L104 162H100L101 165.5H98.5V167L96 167.5V169L91 169.5L90.5 171.5C90.9525 173.2 91.7499 173.954 94 175C100.714 175.89 104.763 175.882 112.5 175C123.803 173.149 126.974 171.881 131 169.5C149.041 164.484 158.95 159.561 176.5 149.5H181C195.446 147.21 203.292 144.613 217 138.5C225.268 138.533 231.128 140.11 244 146C249.729 149.137 253.441 150.625 261.5 152.5C263.473 153.387 264.845 153.8 269 154C270.802 153.918 271.097 154.281 271.5 155L264 162H265L272.5 155L275 155.5L269 162L269.5 162.5L276 155.5H277.5L273 162.5H273.5L278.5 155.5H279.5L278.5 160H279L280.5 155.5H281.5L285 155C288.671 154.547 291.157 153.94 294 149.5C295.928 147.038 295.992 145.154 294.5 141C293.457 139.549 292.402 138.98 289.5 138.5C288.169 137.49 287.643 136.78 287.5 135C287.797 127.216 286.529 123.872 278.5 122C275.465 117.415 270.752 115.234 249.5 113C238.277 108.142 233.365 104.643 224 96C217.224 85.999 211.753 81.0016 199.5 73C198.544 64.4694 196.943 58.3307 193 46C189.575 36.428 187.15 30.9847 181 21C174.172 5.72765 170.341 1.64414 163.5 0.999985C165.304 18.6631 166.063 28.5537 163.5 46C171.187 63.3964 171.572 68.5214 170 75C135.52 73.2107 123.754 72.9233 109 73C94.564 73.8674 88.9743 73.3144 81 71.5C66.4011 62.4283 61.6303 58.6609 55 51.5C46.4067 41.9898 44.5147 37.4921 43 30C41.5923 23.1707 39.8281 19.0008 36.5 11.5C37.0849 16.2611 36.5985 18.3687 36 21C32.7472 18.3072 31.6965 16.9291 29.9895 13.5C30.8373 18.5229 30.6814 19.7797 29.9895 21ZM29.9895 21C30.1548 21.1718 29.8142 20.8381 29.9895 21Z" stroke="black"/>
</svg>
