<svg width="1551" height="1614" viewBox="0 0 1551 1614" fill="none" xmlns="http://www.w3.org/2000/svg">
<path d="M1490.5 1591.5L1485.5 1602L1483.5 1598.5L1474 1610L1471.5 1608.5L1469.5 1612.5L1467.5 1608.5C1466.76 1611.91 1465.83 1613.1 1460.5 1610L1457.5 1602H1454.5V1591.5L1452.5 1589.5V1580.5L1451 1568C1444.54 1531.95 1438.46 1505.1 1439 1488C1436.97 1447.47 1433.08 1421.17 1437.5 1389V1380C1436.74 1367.53 1436.39 1360.48 1445 1340C1439.93 1324.82 1436.79 1316.43 1426.5 1303.5C1402.07 1276.6 1392.41 1262.29 1387 1239L1386.68 1238.41C1382.75 1231 1380.45 1226.67 1380.5 1223H1377L1374.5 1231.5L1370 1223H1368.5V1236L1363.5 1231.5L1362 1236C1359.28 1233.74 1357.85 1231.76 1355.5 1226.5L1353 1233.5L1350.5 1226.5L1349 1233.5L1341 1216.5V1203L1336 1209C1335.2 1200.87 1334.47 1196.6 1336 1186C1332.52 1181.81 1329.82 1180.08 1322.5 1179L1315.5 1194.5C1308.57 1188.46 1304.08 1185.72 1294.5 1182.5C1290.17 1181.59 1287.1 1181.79 1279.5 1184.5L1286 1177C1280.33 1175.39 1277.28 1176.79 1272 1182.5C1252.63 1192.81 1243.01 1198.93 1230 1211C1218.85 1228.02 1211.75 1237.37 1194.5 1253C1186.54 1258.24 1181.06 1259.23 1170.5 1259.5C1181.97 1237.2 1190.56 1224.84 1209 1203C1223.03 1190.88 1230.35 1184.04 1251.5 1172.5C1255.91 1170.98 1258.36 1169.82 1262.5 1164.5C1268.03 1159.67 1271.18 1157.67 1277 1157C1277 1157 1279.5 1153.5 1275 1153L1238 1175C1228.84 1185.05 1220.16 1192.45 1201 1207.5C1193.72 1213.3 1188.93 1216.43 1174.5 1221C1172.38 1212.74 1171.74 1208.2 1176 1201C1205.6 1169.58 1224.35 1153.73 1264.5 1131C1276.85 1127.15 1283.1 1125.7 1292 1125.5C1292 1125.5 1294.5 1121 1289 1119.5C1285.28 1126.34 1271.81 1126.11 1245 1130C1243.08 1131.54 1231.9 1136.84 1227 1136.5L1235.5 1131C1228.92 1127.56 1224.54 1127.42 1216 1129C1200.74 1134.87 1191.26 1142.66 1170.5 1175C1170.5 1175 1167.5 1202.5 1168 1207.5C1168.5 1212.5 1168 1241 1168 1241C1159.65 1220.43 1153.24 1209.14 1142 1186C1121.15 1223.67 1109.74 1236.54 1090 1241C1105.11 1192.08 1115.51 1168.2 1124.5 1150C1120.1 1139.21 1117.06 1132.81 1108.5 1119.5C1100.75 1108.43 1096.45 1102.17 1092 1087C1084.88 1074.56 1082 1067.52 1085 1054.5L1097.5 1028.5C1096.96 1022.46 1095.49 1022.14 1089.5 1030.5C1082.67 1035.31 1078.85 1037.88 1073 1030.5L1067 1022.5L1045.5 1047.5L1043.5 1054.5H1039C1033.86 1059.77 1029.96 1062.03 1020 1064C1001.1 1070.87 991.436 1074.81 981 1082.5C975.167 1087.63 968.997 1091.15 948.5 1099.5C948.843 1103.77 948.571 1106.03 944.5 1109C920.607 1120.8 907.679 1125.98 886 1131C876.26 1131.06 870.657 1130.61 860 1127.5C853.925 1126.44 850.943 1127.12 846.5 1131C853.69 1157.98 859.277 1173.26 874.5 1201C890.683 1218.37 900.754 1227.13 920.5 1241C935.135 1249.47 943.931 1252.41 960 1256.5C944.197 1255.99 934.201 1254.44 913.5 1248.5L913.318 1248.37C888.48 1230.77 874.498 1220.86 860 1198C848.824 1173.66 842.063 1160.25 837 1133L811.5 1175C816.803 1231.95 823.698 1262.85 841.5 1316.5C858.233 1351.37 870.708 1369.63 897 1400.5H891.5L895.5 1406H889C866.747 1380.39 853.774 1366.13 839 1339C821.553 1286.63 810.83 1257.98 803.5 1198C795.952 1220.17 792.896 1232.89 791 1256.5C790.372 1273.99 791.202 1283.14 793.5 1299C785.52 1286.36 782.246 1278.82 781.5 1263.5C783.845 1229.18 786.089 1210.12 797 1177.5C793.952 1164.08 794.16 1155.79 797 1140C802.047 1127.13 806.85 1121.86 819.5 1116.5C801.479 1109.51 791.962 1105.99 783.5 1105.5C769.173 1117.68 762.998 1126.53 754 1144.5L757.5 1150.5L751.5 1148C763.777 1166.25 767.676 1175.08 766.5 1187C757.127 1184.59 751.799 1180.84 742 1164.5C733.957 1184.21 731.808 1195.27 729.5 1215C725.952 1197.17 724.336 1186.88 736 1157.5C735.081 1149.07 734.109 1143.77 727 1127.5C730.345 1110.03 732.841 1100.21 742 1082.5C720.279 1081.96 709.174 1082.37 691.5 1084.5C680.253 1084.31 673.11 1085.12 659.5 1087.5C653.836 1089.72 649.343 1090.64 636 1091C628.115 1102.52 622.642 1108.36 609 1116.5C611.931 1107.93 613.285 1103.17 623.5 1093.5L622 1091C614.251 1102.06 609.872 1106.93 602 1113C600.76 1107.85 601.5 1104.33 607.5 1096C584.78 1099.74 575.223 1104.51 560.5 1115C546.471 1135.01 538.764 1145.07 525.5 1159.5C528.594 1148.83 531.788 1141.71 539.088 1132.8C531.742 1140.79 525.997 1146.49 518 1153C522.699 1139.06 526.669 1131.17 543.5 1116.5C550.825 1107.1 556.748 1102.62 570.5 1096C597.702 1085.58 616.802 1081.74 654 1076.5L653.935 1076.5C633.365 1075.61 621.813 1075.12 609 1076.5C591.25 1077.04 583.392 1077.68 570.5 1079H556.5C571.316 1074.65 579.793 1072.31 599 1070.5C617.998 1068.5 628.647 1067.39 636 1065C647.003 1060.35 652.692 1057.72 670.5 1053.5C668.404 1050.08 667.128 1048.16 658 1045C652.199 1047.78 647.738 1048.99 637.5 1050.5C634.616 1049.07 632.674 1048.43 625.5 1049C595.384 1062.21 578.258 1068.57 547.5 1079L433.5 1113L332 1140C297.351 1148.15 277.16 1150 240.5 1151C200.334 1152.21 179.34 1148.85 144.5 1136C111.217 1122.42 94.5984 1111.82 68.5002 1087.5C46.3343 1051.13 34.4694 1030.31 22.0002 986.5C12.6289 941.944 4.98404 918.244 2.50016 870C0.00569046 821.38 0.615786 793.475 7.00016 742C7.5949 737.794 8.15954 733.813 8.7156 730C12.7294 702.477 16.2955 683.717 27.5 652.5C37.3069 618.522 43.9645 599.002 60 562.5C78.6559 521.76 89.5776 498.902 113 458C132.664 424.228 143.641 405.91 163 376C218.916 290.845 250.907 243.219 301 157C304.2 152.2 362.667 51 391.5 1L297 169.5L166 379C105.538 474.426 90.7746 497.296 66 557.5L8.7156 730L8.55051 731.98C3.10701 797.249 0.00432479 834.451 7.00016 893.5C18.8426 970.444 27.8146 1012.42 65.5 1076.5C91.3308 1104.77 106.719 1116.18 136 1127.5C159.098 1137.89 171.505 1142.06 192 1144.5C241.477 1149.55 268.527 1149.13 315 1140C375.338 1125.49 407.786 1116.64 465 1100.5C566.848 1067.56 604.023 1054.45 618.5 1045L622 1043.5C572.552 1044.65 550.65 1045.8 524.5 1049C485.589 1052.43 463.229 1053.53 422 1053.5C358.895 1050.05 327.544 1044.95 281 1028.5C216.758 999.196 194.526 978.798 165 939.5L164.63 938.675C153.787 914.491 147.594 900.679 144.5 878.5C141.075 850.132 140.308 833.851 144.5 803C153.133 763.145 157.352 740.878 178 699.5C198.08 660.854 210.35 640.752 236.5 611.5C286.791 562.347 317.022 536.048 388.5 500C462.201 469.024 508.133 454.076 645.5 456.5C669.106 454.333 795.789 479.01 828 494.5C894.541 521.703 926.242 538.254 977.5 569L1023.5 602C1039.83 614.624 1048.62 619.952 1061 614C1064.35 605.75 1064.88 601.663 1055.5 598.5L1062.5 600C1065.15 604.122 1065.66 606.421 1064.5 610.5C1061.27 615.874 1060.27 619.568 1050 619C1044.15 618.254 1041.23 617.676 1037.5 616C973.703 569.089 939.014 546.74 881 521C802.2 488.975 757.912 471.444 673 463.5C600.281 458.442 559.268 459.796 485.5 473C391.97 497.955 341.858 520.88 261 594.5C222.951 633.32 204.116 654.729 187.5 690.5C159.171 756.966 149.044 790.216 147.5 838C150.13 899.834 159.283 929.481 194.5 970C239.279 1006.75 265.44 1020.46 314 1032.5C417.742 1051.93 469.487 1052.41 553 1039C519.236 1038.6 501.19 1037.15 470.5 1032.5H465L454.5 1028.5L458 1025C449.476 1024.37 444.383 1023.27 433.5 1017H422L428.5 1011L430.911 1010.85C458.332 1009.1 474.432 1008.07 475.5 1003C461.42 997.162 453.524 988.829 439.959 974.512L439 973.5C461.059 986.47 476.327 996.438 484.5 996.5C490.251 993.663 494.796 992.483 506.5 991.5L532 988.5V981H536.5H540C557.064 975.184 568.005 972.215 602 970L622 961C614.114 960.875 611.584 959.311 609 955C592.773 958.392 584.507 961.198 570.5 967L547.5 973.5H545L546 971.5C534.19 975.429 527.018 976.764 513.5 978C500.861 979.576 494.15 979.643 483 978C491.058 972.686 502.07 968.133 561 950.5L569.5 947L564.5 945.5L570.5 943L583 940L578 938C581.658 935.064 585.825 934.086 598.5 934C607.071 934.251 615.443 931.12 609 929.5L603.5 927C621.249 924.037 627.783 922.396 634.5 919.5L627 914.5C646.709 911.678 655.242 910.338 659.5 909V902C674.238 901.007 681.916 900.31 687 897C686.812 893.709 685.45 892.3 681 890.5C701.079 890.29 711.222 889.963 722 888C724.142 881.775 726.722 880.57 735 884.5C770.539 881.408 771.882 880.206 776.5 878L769 873.5C803.966 870.425 823.333 868.65 848.5 863.5C891.122 856.449 917.418 853.312 972.5 850.5C975.237 854.556 976.862 856.518 981.5 854C1006.86 852.452 1019.96 851.16 1017.5 839C1051.98 826.32 1072.42 819.42 1137.5 812.5C1215.13 817.185 1253.64 820.248 1261.5 831C1269.89 833.985 1274.44 835.457 1280 834.5C1332.2 865.845 1364.17 883.119 1389 917.5C1429.66 971.386 1449.07 1001.33 1468 1053.5C1484.51 1090.44 1489.71 1108.65 1491.5 1136.5C1542.6 1207.27 1553.83 1244.75 1549.5 1308.5L1542 1303.5C1539.6 1318.18 1538.65 1326.02 1542 1335C1543.68 1363.32 1543.9 1378.11 1542 1401C1536.59 1446.5 1533.63 1471.97 1536 1513.5C1532.49 1509.67 1531.11 1506.04 1529.5 1497.5C1528.25 1518.53 1528.22 1531.72 1523.5 1545.5L1520.5 1541.5L1517 1558L1515 1556L1510.5 1568L1508 1566C1504.23 1577.41 1501.55 1583.6 1495 1594L1490.5 1591.5Z" fill="#1B0303"/>
<path d="M8.7156 730C8.15954 733.813 7.5949 737.794 7.00016 742C0.615786 793.475 0.00569046 821.38 2.50016 870C4.98404 918.244 12.6289 941.944 22.0002 986.5C34.4694 1030.31 46.3343 1051.13 68.5002 1087.5C94.5984 1111.82 111.217 1122.42 144.5 1136C179.34 1148.85 200.334 1152.21 240.5 1151C277.16 1150 297.351 1148.15 332 1140L433.5 1113L547.5 1079C578.258 1068.57 595.384 1062.21 625.5 1049C632.674 1048.43 634.616 1049.07 637.5 1050.5C647.738 1048.99 652.199 1047.78 658 1045C667.128 1048.16 668.404 1050.08 670.5 1053.5C652.692 1057.72 647.002 1060.35 636 1065C628.647 1067.39 617.998 1068.5 599 1070.5C579.793 1072.31 571.316 1074.65 556.5 1079H570.5C583.392 1077.68 591.25 1077.04 609 1076.5C621.826 1075.11 633.39 1075.61 654 1076.5C616.802 1081.74 597.702 1085.58 570.5 1096C556.748 1102.62 550.825 1107.1 543.5 1116.5C526.669 1131.17 522.699 1139.06 518 1153C528.78 1144.23 535.469 1136.91 547.5 1123.5C533.846 1137.52 529.585 1145.41 525.5 1159.5C538.764 1145.07 546.471 1135.01 560.5 1115C575.223 1104.51 584.78 1099.74 607.5 1096C601.5 1104.33 600.76 1107.85 602 1113C609.872 1106.93 614.251 1102.06 622 1091L623.5 1093.5C613.285 1103.17 611.931 1107.93 609 1116.5C622.642 1108.36 628.115 1102.52 636 1091C649.343 1090.64 653.835 1089.72 659.5 1087.5C673.11 1085.12 680.253 1084.31 691.5 1084.5C709.174 1082.37 720.279 1081.96 742 1082.5C732.841 1100.21 730.345 1110.03 727 1127.5C734.109 1143.77 735.081 1149.07 736 1157.5C724.336 1186.88 725.952 1197.17 729.5 1215C731.808 1195.27 733.957 1184.21 742 1164.5C751.799 1180.84 757.127 1184.59 766.5 1187C767.676 1175.08 763.777 1166.25 751.5 1148L757.5 1150.5L754 1144.5C762.998 1126.53 769.173 1117.68 783.5 1105.5C791.962 1105.99 801.479 1109.51 819.5 1116.5C806.85 1121.86 802.047 1127.13 797 1140C794.16 1155.79 793.952 1164.08 797 1177.5C786.089 1210.12 783.845 1229.18 781.5 1263.5C782.246 1278.82 785.52 1286.36 793.5 1299C791.202 1283.14 790.372 1273.99 791 1256.5C792.896 1232.89 795.952 1220.17 803.5 1198C810.83 1257.98 821.553 1286.63 839 1339C853.774 1366.13 866.747 1380.39 889 1406H895.5L891.5 1400.5H897C870.708 1369.63 858.233 1351.37 841.5 1316.5C823.698 1262.85 816.803 1231.95 811.5 1175L837 1133C842.063 1160.25 848.824 1173.66 860 1198C874.533 1220.91 888.548 1230.81 913.5 1248.5C934.201 1254.44 944.197 1255.99 960 1256.5C943.931 1252.41 935.135 1249.47 920.5 1241C900.754 1227.13 890.683 1218.37 874.5 1201C859.277 1173.26 853.69 1157.98 846.5 1131C850.943 1127.12 853.925 1126.44 860 1127.5C870.657 1130.61 876.26 1131.06 886 1131C907.679 1125.98 920.607 1120.8 944.5 1109C948.571 1106.03 948.843 1103.77 948.5 1099.5C968.997 1091.15 975.167 1087.63 981 1082.5C991.436 1074.81 1001.1 1070.87 1020 1064C1029.96 1062.03 1033.86 1059.77 1039 1054.5H1043.5L1045.5 1047.5L1067 1022.5L1073 1030.5C1078.85 1037.88 1082.67 1035.31 1089.5 1030.5C1095.49 1022.14 1096.96 1022.46 1097.5 1028.5L1085 1054.5C1082 1067.52 1084.88 1074.56 1092 1087C1096.45 1102.17 1100.75 1108.43 1108.5 1119.5C1117.06 1132.81 1120.1 1139.21 1124.5 1150C1115.51 1168.2 1105.11 1192.08 1090 1241C1109.74 1236.54 1121.15 1223.67 1142 1186C1153.24 1209.14 1159.65 1220.43 1168 1241C1168 1241 1168.5 1212.5 1168 1207.5C1167.5 1202.5 1170.5 1175 1170.5 1175C1191.26 1142.66 1200.74 1134.87 1216 1129C1224.54 1127.42 1228.92 1127.56 1235.5 1131L1227 1136.5C1231.9 1136.84 1243.08 1131.54 1245 1130C1271.81 1126.11 1285.28 1126.34 1289 1119.5C1294.5 1121 1292 1125.5 1292 1125.5C1283.1 1125.7 1276.85 1127.15 1264.5 1131C1224.35 1153.73 1205.6 1169.58 1176 1201C1171.74 1208.2 1172.38 1212.74 1174.5 1221C1188.93 1216.43 1193.72 1213.3 1201 1207.5C1220.16 1192.45 1228.84 1185.05 1238 1175L1275 1153C1279.5 1153.5 1277 1157 1277 1157C1271.18 1157.67 1268.03 1159.67 1262.5 1164.5C1258.36 1169.82 1255.91 1170.98 1251.5 1172.5C1230.35 1184.04 1223.03 1190.88 1209 1203C1190.56 1224.84 1181.97 1237.2 1170.5 1259.5C1181.06 1259.23 1186.54 1258.24 1194.5 1253C1211.75 1237.37 1218.85 1228.02 1230 1211C1243.01 1198.93 1252.63 1192.81 1272 1182.5C1277.28 1176.79 1280.33 1175.39 1286 1177L1279.5 1184.5C1287.1 1181.79 1290.17 1181.59 1294.5 1182.5C1304.08 1185.72 1308.57 1188.46 1315.5 1194.5L1322.5 1179C1329.82 1180.08 1332.52 1181.81 1336 1186C1334.47 1196.6 1335.2 1200.87 1336 1209L1341 1203V1216.5L1349 1233.5L1350.5 1226.5L1353 1233.5L1355.5 1226.5C1357.85 1231.76 1359.28 1233.74 1362 1236L1363.5 1231.5L1368.5 1236V1223H1370L1374.5 1231.5L1377 1223H1380.5C1380.45 1226.77 1382.88 1231.23 1387 1239C1392.41 1262.29 1402.07 1276.6 1426.5 1303.5C1436.79 1316.43 1439.93 1324.82 1445 1340C1436.39 1360.48 1436.74 1367.53 1437.5 1380V1389C1433.08 1421.17 1436.97 1447.47 1439 1488C1438.46 1505.1 1444.54 1531.95 1451 1568L1452.5 1580.5V1589.5L1454.5 1591.5V1602H1457.5L1460.5 1610C1465.83 1613.1 1466.76 1611.91 1467.5 1608.5L1469.5 1612.5L1471.5 1608.5L1474 1610L1483.5 1598.5L1485.5 1602L1490.5 1591.5L1495 1594C1501.55 1583.6 1504.23 1577.41 1508 1566L1510.5 1568L1515 1556L1517 1558L1520.5 1541.5L1523.5 1545.5C1528.22 1531.72 1528.25 1518.53 1529.5 1497.5C1531.11 1506.04 1532.49 1509.67 1536 1513.5C1533.63 1471.97 1536.59 1446.5 1542 1401C1543.9 1378.11 1543.68 1363.32 1542 1335C1538.65 1326.02 1539.6 1318.18 1542 1303.5L1549.5 1308.5C1553.83 1244.75 1542.6 1207.27 1491.5 1136.5C1489.71 1108.65 1484.51 1090.44 1468 1053.5C1449.07 1001.33 1429.66 971.386 1389 917.5C1364.17 883.119 1332.2 865.845 1280 834.5C1274.44 835.457 1269.89 833.985 1261.5 831C1253.64 820.248 1215.13 817.185 1137.5 812.5C1072.42 819.42 1051.98 826.32 1017.5 839C1019.96 851.16 1006.86 852.452 981.5 854C976.862 856.518 975.237 854.556 972.5 850.5C917.418 853.312 891.122 856.449 848.5 863.5C823.333 868.65 803.966 870.425 769 873.5L776.5 878C771.882 880.206 770.539 881.408 735 884.5C726.722 880.57 724.142 881.775 722 888C711.222 889.963 701.079 890.29 681 890.5C685.45 892.3 686.812 893.709 687 897C681.916 900.31 674.238 901.007 659.5 902V909C655.242 910.338 646.709 911.678 627 914.5L634.5 919.5C627.783 922.396 621.249 924.037 603.5 927L609 929.5C615.442 931.12 607.071 934.251 598.5 934C585.825 934.086 581.658 935.064 578 938L583 940L570.5 943L564.5 945.5L569.5 947L561 950.5C502.07 968.133 491.058 972.686 483 978C494.15 979.642 500.861 979.576 513.5 978C527.018 976.764 534.19 975.429 546 971.5L545 973.5H547.5L570.5 967C584.507 961.198 592.773 958.392 609 955C611.584 959.311 614.114 960.875 622 961L602 970C568.005 972.215 557.064 975.184 540 981H536.5H532V988.5L506.5 991.5C494.796 992.483 490.251 993.663 484.5 996.5C476.327 996.438 461.059 986.47 439 973.5C453.159 988.438 461.091 997.025 475.5 1003C474.402 1008.22 457.387 1009.15 428.5 1011L422 1017H433.5C444.383 1023.27 449.476 1024.37 458 1025L454.5 1028.5L465 1032.5H470.5C501.19 1037.15 519.236 1038.6 553 1039C469.487 1052.41 417.742 1051.93 314 1032.5C265.44 1020.46 239.279 1006.75 194.5 970C159.283 929.481 150.13 899.834 147.5 838C149.044 790.216 159.171 756.966 187.5 690.5C204.116 654.729 222.951 633.32 261 594.5C341.858 520.88 391.97 497.955 485.5 473C559.268 459.796 600.281 458.442 673 463.5C757.912 471.444 802.2 488.975 881 521C939.014 546.74 973.703 569.089 1037.5 616C1041.23 617.676 1044.15 618.254 1050 619C1060.27 619.568 1061.27 615.874 1064.5 610.5C1065.66 606.421 1065.15 604.122 1062.5 600L1055.5 598.5C1064.88 601.663 1064.35 605.75 1061 614C1048.62 619.952 1039.83 614.624 1023.5 602L977.5 569C926.242 538.254 894.541 521.703 828 494.5C795.789 479.01 669.106 454.333 645.5 456.5C508.133 454.076 462.201 469.024 388.5 500C317.022 536.048 286.791 562.347 236.5 611.5C210.35 640.752 198.08 660.854 178 699.5C157.352 740.878 153.133 763.145 144.5 803C140.308 833.851 141.075 850.132 144.5 878.5C147.629 900.93 153.927 914.803 165 939.5C194.526 978.798 216.758 999.196 281 1028.5C327.544 1044.95 358.895 1050.05 422 1053.5C463.229 1053.53 485.589 1052.43 524.5 1049C550.65 1045.8 572.552 1044.65 622 1043.5L618.5 1045C604.023 1054.45 566.848 1067.56 465 1100.5C407.786 1116.64 375.338 1125.49 315 1140C268.527 1149.13 241.477 1149.55 192 1144.5C171.505 1142.06 159.098 1137.89 136 1127.5C106.719 1116.18 91.3308 1104.77 65.5 1076.5C27.8146 1012.42 18.8426 970.444 7.00016 893.5C-0.0660963 833.856 3.1705 796.502 8.7156 730ZM8.7156 730C12.7294 702.477 16.2955 683.717 27.5 652.5C37.3069 618.522 43.9645 599.002 60 562.5C78.6559 521.76 89.5776 498.902 113 458C132.664 424.228 143.641 405.91 163 376C218.916 290.845 250.907 243.219 301 157C304.2 152.2 362.667 51 391.5 1L297 169.5L166 379C105.538 474.426 90.7746 497.296 66 557.5L8.7156 730Z" stroke="black"/>
</svg>
