<svg width="1136" height="606" viewBox="0 0 1136 606" fill="none" xmlns="http://www.w3.org/2000/svg">
<path fill-rule="evenodd" clip-rule="evenodd" d="M61.5 590.449C64.5 587.449 68 590.449 68 590.449C68.216 597.085 69.4118 600.375 76 604.449C77.5315 597.705 78.7559 594.5 82 590.449C135.894 603.073 166.113 605.586 220 600.949C265.382 599.148 288.442 595.083 325.5 582.449C361.804 572.813 381.986 567.733 424 547.449C454.489 524.925 472.253 512.047 489.5 494.449C510.004 479.697 521.734 471.552 536 453.449V449.949C558.323 447.73 568.358 445.898 581.5 441.449C582.873 436.409 582.612 433.57 578 428.449C588.095 419.806 592.872 414.661 619 411.449C641.328 404.178 653.175 400.116 645.5 393.449C652.229 380.441 659.79 376.364 679 373.949C695.474 368.431 705.791 366.162 703 345.949C704.258 319.691 709.717 308.06 743.5 302.949C758.034 293.608 764.902 288.094 766.5 275.949C772.851 234.431 786.515 222.812 825.5 218.949L826.553 218.372C853.357 203.685 868.707 195.273 912.5 188.449C953.011 190.206 974.222 187.908 1008 174.949C1029.08 167.28 1041.32 163.94 1066.5 165.449C1092.34 164.245 1105.42 161.981 1122.5 150.949C1135.21 142.02 1140.12 135.719 1130 113.449C1090.73 79.9711 1068.23 61.4565 1017.5 33.9488C972.354 17.6379 947.301 11.1331 903 3.44884C858.282 -1.08657 831.657 -1.91122 759 24.4488C748.304 28.7132 742.267 31.3706 731 39.4489C712.286 54.7161 700.24 62.3097 676.5 74.4489C663.666 87.561 656.291 95.7385 643 110.949C625.004 126.607 613.847 134.921 587.5 146.949C573.848 154.59 561.627 163.661 534 185.949C506.385 203.064 490.486 210.686 461 218.949C421.977 235.56 398.783 248.642 355.5 277.449C299.038 280.934 268.057 287.527 215 314.449C171.491 336 149.024 350.196 113 379.949C91.8296 385.404 80.7358 389.075 71.5 403.949C58.0448 413.472 51.4454 418.512 43 426.449C32.0597 443.228 26.7017 452.759 21.5 470.449C11.344 487.881 6.46713 497.486 1 513.949C1.53127 527.815 2.02459 535.464 5.5 547.449C1.25951 559.336 4.09412 567.493 38.4999 590.449L34.9999 596.949L43 590.449L46.4999 596.949L49.9999 590.449H61.5ZM154.5 456C148.657 453.012 144.72 452.99 137.5 453.449C128.316 456.177 124.426 459.606 119 468C115.427 477.927 118.659 481.516 124.333 487.814L124.5 488C133.776 495.174 139.375 494.611 149.5 492C163.472 487.08 165.785 482.345 166 472.5C162.762 462.024 160.269 458.363 154.5 456Z" fill="black"/>
<path d="M825.5 218.949C786.515 222.812 772.851 234.431 766.5 275.949C764.902 288.094 758.034 293.608 743.5 302.949C709.717 308.06 704.258 319.691 703 345.949C705.791 366.162 695.474 368.431 679 373.949C659.79 376.364 652.229 380.441 645.5 393.449C653.175 400.116 641.328 404.178 619 411.449C592.872 414.661 588.095 419.806 578 428.449C582.612 433.57 582.873 436.409 581.5 441.449C568.358 445.898 558.323 447.73 536 449.949V453.449C521.734 471.552 510.004 479.697 489.5 494.449C472.253 512.047 454.489 524.925 424 547.449C381.986 567.733 361.804 572.813 325.5 582.449C288.442 595.083 265.382 599.148 220 600.949C166.113 605.586 135.894 603.073 82 590.449C78.7559 594.5 77.5315 597.705 76 604.449C69.4118 600.375 68.216 597.085 68 590.449C68 590.449 64.5 587.449 61.5 590.449H49.9999L46.4999 596.949L43 590.449L34.9999 596.949L38.4999 590.449C4.09412 567.493 1.25951 559.336 5.5 547.449C2.02459 535.464 1.53127 527.815 1 513.949C6.46713 497.486 11.344 487.881 21.5 470.449C26.7017 452.759 32.0597 443.228 43 426.449C51.4454 418.512 58.0448 413.472 71.5 403.949C80.7358 389.075 91.8296 385.404 113 379.949C149.024 350.196 171.491 336 215 314.449C268.057 287.527 299.038 280.934 355.5 277.449C398.783 248.642 421.977 235.56 461 218.949C490.486 210.686 506.385 203.064 534 185.949C561.627 163.661 573.848 154.59 587.5 146.949C613.847 134.921 625.004 126.607 643 110.949C656.291 95.7385 663.666 87.561 676.5 74.4489C700.24 62.3097 712.286 54.7161 731 39.4489C742.267 31.3706 748.304 28.7132 759 24.4488C831.657 -1.91122 858.282 -1.08657 903 3.44884C947.301 11.1331 972.354 17.6379 1017.5 33.9488C1068.23 61.4565 1090.73 79.9711 1130 113.449C1140.12 135.719 1135.21 142.02 1122.5 150.949C1105.42 161.981 1092.34 164.245 1066.5 165.449C1041.32 163.94 1029.08 167.28 1008 174.949C974.222 187.908 953.011 190.206 912.5 188.449C868.707 195.273 853.357 203.685 826.553 218.372M825.5 218.949L826.553 218.372M825.5 218.949C825.853 218.755 826.204 218.563 826.553 218.372M124.5 488C133.776 495.174 139.375 494.611 149.5 492C163.472 487.08 165.785 482.345 166 472.5C162.762 462.024 160.269 458.363 154.5 456C148.657 453.012 144.72 452.99 137.5 453.449C128.316 456.177 124.426 459.606 119 468C115.427 477.927 118.659 481.516 124.333 487.814M124.5 488L124.333 487.814M124.5 488C124.444 487.938 124.388 487.876 124.333 487.814" stroke="black"/>
</svg>
